<?xml version="1.0" encoding="UTF-8" standalone="no"?>
<svg
   xmlns:dc="http://purl.org/dc/elements/1.1/"
   xmlns:cc="http://creativecommons.org/ns#"
   xmlns:rdf="http://www.w3.org/1999/02/22-rdf-syntax-ns#"
   xmlns:svg="http://www.w3.org/2000/svg"
   xmlns="http://www.w3.org/2000/svg"
   xmlns:sodipodi="http://sodipodi.sourceforge.net/DTD/sodipodi-0.dtd"
   xmlns:inkscape="http://www.inkscape.org/namespaces/inkscape"
   id="svg4"
   version="1.1"
   viewBox="-1 -1 52 52"
   sodipodi:docname="linotify_icon_v3.svg"
   inkscape:version="0.92.4 (5da689c313, 2019-01-14)">
  <sodipodi:namedview
     pagecolor="#ffffff"
     bordercolor="#666666"
     borderopacity="1"
     objecttolerance="10"
     gridtolerance="10"
     guidetolerance="10"
     inkscape:pageopacity="0"
     inkscape:pageshadow="2"
     inkscape:window-width="1920"
     inkscape:window-height="1017"
     id="namedview7"
     showgrid="false"
     inkscape:pagecheckerboard="true"
     inkscape:zoom="12.836708"
     inkscape:cx="10.368947"
     inkscape:cy="25.02084"
     inkscape:window-x="1912"
     inkscape:window-y="-8"
     inkscape:window-maximized="1"
     inkscape:current-layer="svg4" />
  <metadata
     id="metadata10">
    <rdf:RDF>
      <cc:Work
         rdf:about="">
        <dc:format>image/svg+xml</dc:format>
        <dc:type
           rdf:resource="http://purl.org/dc/dcmitype/StillImage" />
        <dc:title></dc:title>
      </cc:Work>
    </rdf:RDF>
  </metadata>
  <defs
     id="defs8" />
  <rect
     style="opacity:1;fill:#ffffff;fill-opacity:1;stroke:none;stroke-width:1.19094265;stroke-miterlimit:4;stroke-dasharray:none;stroke-opacity:1"
     id="rect859"
     width="50"
     height="50"
     x="0"
     y="0"
     rx="9.6372547"
     ry="10.220351" />
  <path
     inkscape:connector-curvature="0"
     id="path2-2"
     d="m 14.192806,35.257831 c 1.99473,0 3.61276,-1.618031 3.61276,-3.614458 h -7.225527 c 0,1.996427 1.61803,3.614458 3.612767,3.614458 z m 12.164342,-8.455012 c -1.091116,-1.172432 -3.132723,-2.936177 -3.132723,-8.713662 0,-4.388178 -3.076807,-7.900979 -7.225529,-8.7628008 v -1.176958 c 0,-0.9979339 -0.808725,-1.8072289 -1.80609,-1.8072289 -0.997363,0 -1.806107,0.809295 -1.806107,1.8072289 v 1.176958 C 8.2379801,10.188178 5.1611734,13.700979 5.1611734,18.089157 c 0,5.777485 -2.0415999,7.54123 -3.1327146,8.713662 -0.3388554,0.364274 -0.4890809,0.799707 -0.4862529,1.226095 0.00636,0.926206 0.7330485,1.80723 1.8128675,1.80723 H 25.030524 c 1.07982,0 1.807229,-0.881024 1.812888,-1.80723 0.0027,-0.426388 -0.147409,-0.862382 -0.486264,-1.226095 z"
     style="fill:#ffcc00;fill-opacity:1;stroke:#9f8200;stroke-width:1.08433747;stroke-miterlimit:4;stroke-dasharray:none;stroke-opacity:0.98660715" />
  <path
     inkscape:connector-curvature="0"
     id="path2"
     d="m 39.574797,6.2209886 c -0.04412,-1.183e-4 -0.08819,0.00232 -0.132017,0.00733 -2.573907,0.304784 -4.953544,0.7225058 -7.229774,2.2662837 -3.927562,-0.2314294 -7.27956,0.1839803 -10.117651,1.0579652 1.002662,0.9421735 1.792527,2.0964515 2.290133,3.4067595 2.30605,-0.512829 4.813383,-0.502215 7.458969,-0.0091 0.268215,0.04995 0.545446,0.0017 0.781104,-0.135683 1.178527,-0.687712 2.358948,-1.292891 3.443445,-1.730884 l -0.572073,1.642916 c -0.11025,0.317156 -0.07468,0.666827 0.09718,0.955286 L 45.02234,29.48166 c -0.207142,1.561192 -0.878894,2.333808 -1.584206,2.776014 -0.439692,0.275671 -0.566435,0.246521 -0.837944,0.313538 -0.594322,-1.05086 -1.469748,-2.190263 -3.381105,-4.033835 -0.75463,-0.728034 -1.889138,-1.482715 -3.227086,-2.389131 -1.337948,-0.906416 -2.857764,-1.928887 -4.239219,-2.999709 -1.381454,-1.070821 -2.619605,-2.199571 -3.38294,-3.234402 -0.763334,-1.034833 -1.003212,-1.851083 -0.812272,-2.53765 0.374998,-1.436719 -1.753106,-2.039649 -2.187452,-0.619746 -10e-4,0.0035 9.52e-4,0.0074 0,0.01099 h -0.0037 c -0.0033,0.01209 0.005,0.02274 0.0018,0.03485 -0.458344,1.651925 -0.06986,3.307987 0.720595,4.758091 0.79783,1.463648 1.988371,2.790333 3.28576,4.013668 2.594781,2.446677 5.70892,4.545579 6.949237,5.713379 2.753802,2.591364 4.032782,4.561966 4.162208,4.813101 0.24469,0.474114 0.786127,0.714328 1.301837,0.577572 0,0 1.927519,-0.500017 3.749655,-1.70888 0.911066,-0.604432 1.82565,-1.397617 2.451484,-2.473476 0.625832,-1.075859 0.911889,-2.461621 0.551905,-3.949493 -0.02333,-0.09852 -0.0597,-0.193481 -0.108179,-0.282367 L 39.604235,12.246036 40.682374,7.6144596 C 40.847228,6.9019023 40.306248,6.2211397 39.574797,6.2209886 Z M 11,36.813018 c 6.125959,11.620698 24.341715,12.477358 31.189469,2.56244 l -0.01279,-0.08256 c 0.03932,-0.05697 0.08975,-0.09992 0.128349,-0.157687 0.769722,-1.151656 -0.79835,-2.417858 -1.762061,-1.422845 -5.259628,5.437656 -15.501915,6.267139 -21.911435,2.216613 -1.67352,-1.057581 -2.090616,-1.49907 -2.929382,-2.515371 C 13.475932,37.668359 12.594774,37.347863 11,36.813018 Z"
     style="color:#000000;font-style:normal;font-variant:normal;font-weight:normal;font-stretch:normal;font-size:medium;line-height:normal;font-family:sans-serif;font-variant-ligatures:normal;font-variant-position:normal;font-variant-caps:normal;font-variant-numeric:normal;font-variant-alternates:normal;font-feature-settings:normal;text-indent:0;text-align:start;text-decoration:none;text-decoration-line:none;text-decoration-style:solid;text-decoration-color:#000000;letter-spacing:normal;word-spacing:normal;text-transform:none;writing-mode:lr-tb;direction:ltr;text-orientation:mixed;dominant-baseline:auto;baseline-shift:baseline;text-anchor:start;white-space:normal;shape-padding:0;clip-rule:nonzero;display:inline;overflow:visible;visibility:visible;opacity:1;isolation:auto;mix-blend-mode:normal;color-interpolation:sRGB;color-interpolation-filters:linearRGB;solid-color:#000000;solid-opacity:1;vector-effect:none;fill:#000000;fill-opacity:1;fill-rule:nonzero;stroke:none;stroke-width:2.27380705;stroke-linecap:butt;stroke-linejoin:round;stroke-miterlimit:4;stroke-dasharray:none;stroke-dashoffset:0;stroke-opacity:1;color-rendering:auto;image-rendering:auto;shape-rendering:auto;text-rendering:auto;enable-background:accumulate"
     sodipodi:nodetypes="ccccccccccccccscsccccccccccscccccccccccscc" />
</svg>
