<?xml version="1.0" encoding="UTF-8" standalone="no"?>
<svg
   xmlns:dc="http://purl.org/dc/elements/1.1/"
   xmlns:cc="http://creativecommons.org/ns#"
   xmlns:rdf="http://www.w3.org/1999/02/22-rdf-syntax-ns#"
   xmlns:svg="http://www.w3.org/2000/svg"
   xmlns="http://www.w3.org/2000/svg"
   xmlns:sodipodi="http://sodipodi.sourceforge.net/DTD/sodipodi-0.dtd"
   xmlns:inkscape="http://www.inkscape.org/namespaces/inkscape"
   viewBox="-1 -1 52 52"
   version="1.1"
   id="svg4"
   sodipodi:docname="linotify_icon_v3.svg"
   inkscape:version="0.92.4 (5da689c313, 2019-01-14)">
  <metadata
     id="metadata10">
    <rdf:RDF>
      <cc:Work
         rdf:about="">
        <dc:format>image/svg+xml</dc:format>
        <dc:type
           rdf:resource="http://purl.org/dc/dcmitype/StillImage" />
        <dc:title></dc:title>
      </cc:Work>
    </rdf:RDF>
  </metadata>
  <defs
     id="defs8" />
  <sodipodi:namedview
     pagecolor="#ffffff"
     bordercolor="#666666"
     borderopacity="1"
     objecttolerance="10"
     gridtolerance="10"
     guidetolerance="10"
     inkscape:pageopacity="0"
     inkscape:pageshadow="2"
     inkscape:window-width="1920"
     inkscape:window-height="1017"
     id="namedview6"
     showgrid="false"
     inkscape:zoom="11.313708"
     inkscape:cx="36.32008"
     inkscape:cy="29.441259"
     inkscape:window-x="1912"
     inkscape:window-y="-8"
     inkscape:window-maximized="1"
     inkscape:current-layer="svg4"
     inkscape:pagecheckerboard="true" />
  <path
     style="opacity:1;fill:#ffffff;fill-opacity:1;stroke:none;stroke-width:1.27660143;stroke-miterlimit:4;stroke-dasharray:none;stroke-opacity:1"
     d="M 29.425781 7.2167969 A 20.706131 19.5 0 0 0 8.7207031 26.716797 A 20.706131 19.5 0 0 0 29.425781 46.216797 A 20.706131 19.5 0 0 0 50.132812 26.716797 A 20.706131 19.5 0 0 0 50.015625 24.841797 C 49.580128 25.084083 49.215292 25.242851 49.152344 25.152344 L 40.492188 12.703125 C 40.399779 12.570259 40.917899 12.051826 41.652344 11.541016 L 42.03125 11.277344 A 20.706131 19.5 0 0 0 29.425781 7.2167969 z "
     transform="translate(-1,-1)"
     id="path826" />
  <path
     style="color:#000000;font-style:normal;font-variant:normal;font-weight:normal;font-stretch:normal;font-size:medium;line-height:normal;font-family:sans-serif;font-variant-ligatures:normal;font-variant-position:normal;font-variant-caps:normal;font-variant-numeric:normal;font-variant-alternates:normal;font-feature-settings:normal;text-indent:0;text-align:start;text-decoration:none;text-decoration-line:none;text-decoration-style:solid;text-decoration-color:#000000;letter-spacing:normal;word-spacing:normal;text-transform:none;writing-mode:lr-tb;direction:ltr;text-orientation:mixed;dominant-baseline:auto;baseline-shift:baseline;text-anchor:start;white-space:normal;shape-padding:0;clip-rule:nonzero;display:inline;overflow:visible;visibility:visible;opacity:1;isolation:auto;mix-blend-mode:normal;color-interpolation:sRGB;color-interpolation-filters:linearRGB;solid-color:#000000;solid-opacity:1;vector-effect:none;fill:#000000;fill-opacity:1;fill-rule:nonzero;stroke:none;stroke-width:2.42207098;stroke-linecap:butt;stroke-linejoin:round;stroke-miterlimit:4;stroke-dasharray:none;stroke-dashoffset:0;stroke-opacity:1;color-rendering:auto;image-rendering:auto;shape-rendering:auto;text-rendering:auto;enable-background:accumulate"
     d="m 41.225781,3.391684 c -0.04699,-1.25e-4 -0.09394,0.0025 -0.140625,0.0078 C 38.343425,3.724143 35.80863,4.169103 33.383984,5.813547 29.200336,5.567027 25.62978,6.009524 22.60664,6.9405 c 1.068038,1.00361 1.909403,2.233156 2.439454,3.628907 2.45641,-0.546269 5.127227,-0.534963 7.945312,-0.0098 0.285702,0.05321 0.581009,0.0019 0.832031,-0.144531 1.255372,-0.732557 2.512759,-1.377198 3.667969,-1.84375 l -0.609375,1.75 c -0.117438,0.337838 -0.07955,0.71031 0.103516,1.017578 l 10.042968,16.830087 c -0.220647,1.662994 -0.9362,2.48599 -1.6875,2.957031 -0.46836,0.293647 -0.603366,0.262597 -0.892578,0.333984 -0.633073,-1.119385 -1.56558,-2.333086 -3.601562,-4.296873 -0.803833,-0.775508 -2.012315,-1.5794 -3.4375,-2.544922 C 35.98419,23.65269 34.365279,22.563546 32.89375,21.422898 31.422222,20.282251 30.103339,19.079896 29.290234,17.977586 28.477128,16.875276 28.221609,16.005797 28.425,15.274461 c 0.399448,-1.530404 -1.867413,-2.17265 -2.330078,-0.660158 -0.0011,0.0037 0.001,0.008 0,0.01172 h -0.0039 c -0.0036,0.01289 0.0054,0.02423 0.002,0.03711 -0.48823,1.759647 -0.07441,3.523695 0.767579,5.068358 0.849852,1.559091 2.118018,2.972284 3.5,4.275391 2.763966,2.606219 6.081155,4.841987 7.402343,6.085937 2.933355,2.760342 4.295728,4.859442 4.433594,5.126953 0.260643,0.50503 0.837384,0.760908 1.386719,0.615234 0,0 2.053199,-0.532622 3.994141,-1.820312 0.970471,-0.643845 1.944688,-1.488753 2.611328,-2.634766 0.666638,-1.146014 0.971344,-2.622139 0.58789,-4.207031 -0.02485,-0.104944 -0.0636,-0.206098 -0.115234,-0.300781 L 41.257085,9.809616 42.405522,4.876023 C 42.581177,4.117 42.004925,3.391845 41.225781,3.391684 Z m -30.43794,32.586875 c 6.525386,12.378461 25.928852,13.290982 33.223096,2.729531 l -0.01362,-0.08794 c 0.04189,-0.06068 0.0956,-0.106437 0.136719,-0.167968 0.819908,-1.226754 -0.850408,-2.575522 -1.876953,-1.515626 -5.602568,5.792235 -16.512675,6.675806 -23.340113,2.361155 -1.782636,-1.12655 -2.226927,-1.596828 -3.120384,-2.6794 -1.963992,0.34273 -3.336306,0.179426 -4.876157,-0.352492 z"
     id="path2"
     inkscape:connector-curvature="0"
     sodipodi:nodetypes="cccccccccccsccssscccccsscccscccccccccccsccc" />
  <path
     inkscape:connector-curvature="0"
     style="fill:#ffcc00;stroke:#8b6f00;stroke-width:1.20000005;stroke-miterlimit:4;stroke-dasharray:none;stroke-opacity:1"
     d="m 13.600041,34.295981 c 2.2075,0 3.99812,-1.79062 3.99812,-4 h -7.99625 c 0,2.20938 1.790621,4 3.99813,4 z m 13.46187,-9.35688 c -1.2075,-1.29749 -3.46688,-3.24937 -3.46688,-9.64312 0,-4.85625 -3.405,-8.74375 -7.99625,-9.6975 v -1.3025 c 0,-1.10438 -0.89499,-2 -1.99874,-2 -1.10375,0 -1.998759,0.89562 -1.998759,2 v 1.3025 c -4.5912506,0.95375 -7.9962506,4.84125 -7.9962506,9.6975 0,6.39375 -2.25937,8.34563 -3.46686999,9.64312 -0.3750002,0.40313 -0.5412502,0.88501 -0.5381202,1.35688 0.007,1.025 0.8112402,2 2.00624019,2 H 25.593781 c 1.195,0 2,-0.975 2.00626,-2 0.003,-0.47187 -0.16313,-0.95437 -0.53813,-1.35688 z"
     id="path2-2" />
</svg>
