<?xml version="1.0" encoding="UTF-8" standalone="no"?>
<svg
   xmlns:dc="http://purl.org/dc/elements/1.1/"
   xmlns:cc="http://creativecommons.org/ns#"
   xmlns:rdf="http://www.w3.org/1999/02/22-rdf-syntax-ns#"
   xmlns:svg="http://www.w3.org/2000/svg"
   xmlns="http://www.w3.org/2000/svg"
   xmlns:sodipodi="http://sodipodi.sourceforge.net/DTD/sodipodi-0.dtd"
   xmlns:inkscape="http://www.inkscape.org/namespaces/inkscape"
   viewBox="0 0 50 50"
   version="1.1"
   id="svg4"
   sodipodi:docname="linotify_font_icon_v1.1.svg"
   inkscape:version="0.92.4 (5da689c313, 2019-01-14)">
  <sodipodi:namedview
     pagecolor="#ffffff"
     bordercolor="#666666"
     borderopacity="1"
     objecttolerance="10"
     gridtolerance="10"
     guidetolerance="10"
     inkscape:pageopacity="0"
     inkscape:pageshadow="2"
     inkscape:window-width="1920"
     inkscape:window-height="1017"
     id="namedview7"
     showgrid="false"
     inkscape:zoom="6.675088"
     inkscape:cx="32.792101"
     inkscape:cy="66.471844"
     inkscape:window-x="1912"
     inkscape:window-y="-8"
     inkscape:window-maximized="1"
     inkscape:current-layer="svg4" />
  <metadata
     id="metadata10">
    <rdf:RDF>
      <cc:Work
         rdf:about="">
        <dc:format>image/svg+xml</dc:format>
        <dc:type
           rdf:resource="http://purl.org/dc/dcmitype/StillImage" />
        <dc:title></dc:title>
      </cc:Work>
    </rdf:RDF>
  </metadata>
  <defs
     id="defs8" />
  <path
     style="fill:currentColor;stroke:none;stroke-width:0.05580341"
     d="m 13.5,1.4277344 c -0.985489,0 -1.785156,0.8010677 -1.785156,1.7871094 v 1.1621093 c -4.0993179,0.85156 -7.1386721,4.3222781 -7.1386721,8.6582029 0,5.708689 -2.0175814,7.452841 -3.0957031,8.611328 C 1.1456484,22.006412 0.99721426,22.436111 1,22.857422 c 0.00625,0.915176 0.7240544,1.785156 1.7910156,1.785156 h 3.6078125 c 0.06942,-0.881717 0.2061733,-1.777133 0.4023438,-2.677734 H 4.7675781 c 1.1841483,-1.560825 2.4801942,-4.148177 2.4863281,-8.896485 0,-0.01116 -0.00391,-0.02213 -0.00391,-0.0332 0,-3.4519989 2.7980028,-6.2499997 6.2499998,-6.2499998 2.000463,0 3.222505,0.1665892 4.36644,1.6286318 C 18.694387,8.0839836 19.383069,7.7970809 20.319967,7.5578349 19.049119,5.5560648 17.732082,4.8852582 15.285156,4.3769531 V 3.2148438 c 0,-0.9860417 -0.799668,-1.7871094 -1.785156,-1.7871094 z m 8.478961,9.3575396 c -0.881636,0.195252 -1.723527,0.4746 -2.553164,0.806211 0.26907,0.6977 0.278406,0.903938 0.324203,1.443671 0.04027,0.4746 -0.0039,0.0332 -0.0039,0.0332 0.0063,4.74887 1.300227,7.336222 2.484375,8.896485 H 10.248047 C 9.9949162,22.851418 9.8404399,23.746655 9.7519531,24.642578 H 24.208984 c 1.066961,0 1.785436,-0.86998 1.791016,-1.785156 0.0027,-0.421311 -0.145649,-0.851573 -0.480469,-1.210938 -1.078122,-1.158487 -3.095703,-2.690775 -3.095703,-8.399464 0,-1.074544 -0.139038,-1.52015 -0.444867,-2.461746 z M 9.9296875,26.427734 C 9.9296875,28.400389 11.529023,30 13.5,30 c 1.970976,0 3.570313,-1.599611 3.570312,-3.572266 z"
     id="path2"
     inkscape:connector-curvature="0"
     sodipodi:nodetypes="sscsccsccccsscccssccsccccsccsccscc" />
  <path
     inkscape:connector-curvature="0"
     style="fill:#000000;stroke:none;stroke-width:0.40000001;stroke-linejoin:round;stroke-miterlimit:4;stroke-dasharray:none;stroke-opacity:1"
     d="M 38.296165,5.1894157 C 35.441663,5.5274267 33.078813,5.9188087 30.787126,7.6023992 11.269766,6.2293267 6.2351658,19.771638 7.3446198,28.530029 9.6193282,45.390195 32.604949,49.895134 40.21507,38.505425 34.195547,44.728727 24.627706,45.582651 17.311931,40.999274 9.9961542,36.415896 6.3855738,26.935391 10.581611,18.990491 14.77846,11.045594 22.15569,8.4522816 30.269596,9.9644419 32.234592,8.8177874 34.494744,7.3606167 36.459741,7.3873011 l -1.369837,3.9299959 10.31179,17.280659 c -0.354994,4.572057 -4.414372,4.942412 -4.414372,4.942412 -0.46416,-1.1887 -1.321318,-2.379021 -3.91544,-4.880957 -2.593311,-2.501934 -14.122914,-8.229538 -12.766824,-13.105642 -1.61809,5.633799 8.337897,11.443885 11.353318,14.283024 3.016234,2.838331 4.387687,4.884193 4.686076,5.46318 0,0 7.594756,-2.024836 6.33813,-7.21874 L 37.03792,10.583861 Z"
     id="path2-7" />
</svg>
