<?xml version="1.0" encoding="UTF-8" standalone="no"?>
<svg
   xmlns:dc="http://purl.org/dc/elements/1.1/"
   xmlns:cc="http://creativecommons.org/ns#"
   xmlns:rdf="http://www.w3.org/1999/02/22-rdf-syntax-ns#"
   xmlns:svg="http://www.w3.org/2000/svg"
   xmlns="http://www.w3.org/2000/svg"
   xmlns:sodipodi="http://sodipodi.sourceforge.net/DTD/sodipodi-0.dtd"
   xmlns:inkscape="http://www.inkscape.org/namespaces/inkscape"
   id="svg4"
   version="1.1"
   viewBox="0 0 50 50"
   sodipodi:docname="linotify_font_icon_v1.svg"
   inkscape:version="0.92.4 (5da689c313, 2019-01-14)">
  <sodipodi:namedview
     pagecolor="#ffffff"
     bordercolor="#666666"
     borderopacity="1"
     objecttolerance="10"
     gridtolerance="10"
     guidetolerance="10"
     inkscape:pageopacity="0"
     inkscape:pageshadow="2"
     inkscape:window-width="1920"
     inkscape:window-height="1017"
     id="namedview7"
     showgrid="false"
     inkscape:zoom="6.675088"
     inkscape:cx="33.285745"
     inkscape:cy="52.506041"
     inkscape:window-x="1912"
     inkscape:window-y="-8"
     inkscape:window-maximized="1"
     inkscape:current-layer="svg4" />
  <metadata
     id="metadata10">
    <rdf:RDF>
      <cc:Work
         rdf:about="">
        <dc:format>image/svg+xml</dc:format>
        <dc:type
           rdf:resource="http://purl.org/dc/dcmitype/StillImage" />
        <dc:title></dc:title>
      </cc:Work>
    </rdf:RDF>
  </metadata>
  <defs
     id="defs8" />
  <path
     inkscape:connector-curvature="0"
     style="fill:currentColor;stroke-width:0.05580341"
     d="m 25.519501,21.645676 c -1.078122,-1.158487 -3.095419,-2.901223 -3.095419,-8.609912 0,-4.3359251 -3.04017,-7.8068966 -7.139488,-8.6584566 v -1.162943 c 0,-0.9860417 -0.799105,-1.7857091 -1.784593,-1.7857091 -0.985489,0 -1.784593,0.7996674 -1.784593,1.7857091 v 1.162943 c -4.0993176,0.85156 -7.1394872,4.3225315 -7.1394872,8.6584566 0,5.708689 -2.0172887,7.451425 -3.0954105,8.609912 -0.3348204,0.359928 -0.48325754,0.790177 -0.4804718,1.211488 0.00625,0.915176 0.7243282,1.785709 1.7912894,1.785709 H 24.208675 c 1.066961,0 1.785709,-0.870533 1.791289,-1.785709 0.0027,-0.421311 -0.145643,-0.852123 -0.480463,-1.211488 z M 4.768447,21.964309 c 1.1841483,-1.560825 2.4787874,-4.147871 2.4849213,-8.896179 0,-0.01116 -0.00357,-0.02125 -0.00357,-0.03232 0,-3.4519991 2.7979827,-6.2499819 6.2499797,-6.2499819 3.451999,0 6.249982,2.7979828 6.249982,6.2499819 0,0.01116 -0.0036,0.02125 -0.0036,0.03232 0.0063,4.74887 1.300782,7.335916 2.48493,8.896179 z M 13.500001,30 c 1.970976,0 3.569748,-1.598763 3.569748,-3.571418 H 9.9302625 C 9.9302625,28.401237 11.529024,30 13.500001,30 Z"
     id="path2" />
  <path
     id="path2-7"
     d="M 38.287965,5.191505 C 35.433463,5.5295163 33.070613,5.9208989 30.778926,7.6044889 11.261566,6.231416 6.2269656,19.773727 7.3364196,28.532118 9.6111281,45.392284 32.596749,49.897223 40.20687,38.507514 34.187347,44.730816 24.619506,45.58474 17.303731,41.001363 9.9879541,36.417985 6.3773736,26.93748 10.573411,18.99258 14.77026,11.047683 22.14749,8.4543713 30.261396,9.9665311 32.226392,8.8198771 34.486544,7.3627063 36.451541,7.3893908 l -1.369837,3.9299952 10.31179,17.280659 c -0.354994,4.572057 -4.414372,4.942412 -4.414372,4.942412 -0.46416,-1.1887 -1.321318,-2.379021 -3.91544,-4.880957 -2.593311,-2.501934 -14.122914,-8.229538 -12.766824,-13.105642 -1.61809,5.633799 8.337897,11.443885 11.353318,14.283024 3.016234,2.838331 4.387687,4.884193 4.686076,5.46318 0,0 7.594756,-2.024836 6.33813,-7.21874 L 37.02972,10.58595 Z"
     style="fill:#000000;stroke:#ffffff;stroke-width:0.4;stroke-linejoin:round;stroke-miterlimit:4;stroke-dasharray:none;stroke-opacity:1"
     inkscape:connector-curvature="0" />
</svg>
