<?xml version="1.0" encoding="UTF-8" standalone="no"?>
<svg
   xmlns:dc="http://purl.org/dc/elements/1.1/"
   xmlns:cc="http://creativecommons.org/ns#"
   xmlns:rdf="http://www.w3.org/1999/02/22-rdf-syntax-ns#"
   xmlns:svg="http://www.w3.org/2000/svg"
   xmlns="http://www.w3.org/2000/svg"
   xmlns:sodipodi="http://sodipodi.sourceforge.net/DTD/sodipodi-0.dtd"
   xmlns:inkscape="http://www.inkscape.org/namespaces/inkscape"
   id="SVGRoot"
   version="1.1"
   viewBox="0 0 64 64"
   height="64px"
   width="64px"
   sodipodi:docname="tilde.svg"
   inkscape:version="0.92.4 (5da689c313, 2019-01-14)">
  <sodipodi:namedview
     pagecolor="#ffffff"
     bordercolor="#666666"
     borderopacity="1"
     objecttolerance="10"
     gridtolerance="10"
     guidetolerance="10"
     inkscape:pageopacity="0"
     inkscape:pageshadow="2"
     inkscape:window-width="1920"
     inkscape:window-height="1017"
     id="namedview8"
     showgrid="false"
     inkscape:zoom="3.6875"
     inkscape:cx="-15.59322"
     inkscape:cy="32"
     inkscape:window-x="1912"
     inkscape:window-y="-8"
     inkscape:window-maximized="1"
     inkscape:current-layer="g4" />
  <defs
     id="defs1386" />
  <metadata
     id="metadata1389">
    <rdf:RDF>
      <cc:Work
         rdf:about="">
        <dc:format>image/svg+xml</dc:format>
        <dc:type
           rdf:resource="http://purl.org/dc/dcmitype/StillImage" />
        <dc:title />
      </cc:Work>
    </rdf:RDF>
  </metadata>
  <g
     id="layer1">
    <g
       transform="matrix(0.60032296,0,0,0.60537333,3.7531664,16.402748)"
       id="g4"
       style="fill:none;stroke:#000000;stroke-width:0.025in">
      <path
         d="m 94.736654,14.143132 h 4.388628 q -0.390101,14.162692 -7.21685,22.224529 -6.826755,7.952898 -16.67678,7.952898 -4.486151,0 -9.654976,-1.634155 -5.168827,-1.7431 -26.721856,-11.548043 -15.018852,-6.9724 -21.357979,-6.9724 -6.82675,0 -11.5079531,4.684581 -4.6812007,4.684584 -6.63170108,15.25213 H -4.933914 q 0.5851501,-14.707411 7.2168514,-22.442416 6.6317013,-7.843955 15.6040036,-7.843955 4.291099,0 8.777252,1.525213 10.142602,3.268315 26.624331,11.221211 16.579252,7.843953 23.308478,7.843953 7.314375,0 12.288152,-5.229305 4.973778,-5.229301 5.8515,-15.034241 z"
         style="font-style:normal;font-weight:normal;font-size:200px;font-family:Times;text-anchor:start;fill:#000000;stroke-width:0.02638756in"
         id="path815"
         inkscape:connector-curvature="0" />
    </g>
  </g>
</svg>
