<?xml version="1.0" encoding="UTF-8" standalone="no"?>
<svg
   xmlns:dc="http://purl.org/dc/elements/1.1/"
   xmlns:cc="http://creativecommons.org/ns#"
   xmlns:rdf="http://www.w3.org/1999/02/22-rdf-syntax-ns#"
   xmlns:svg="http://www.w3.org/2000/svg"
   xmlns="http://www.w3.org/2000/svg"
   id="svg4"
   version="1.1"
   viewBox="-1 -1 52 52">
  <metadata
     id="metadata10">
    <rdf:RDF>
      <cc:Work
         rdf:about="">
        <dc:format>image/svg+xml</dc:format>
        <dc:type
           rdf:resource="http://purl.org/dc/dcmitype/StillImage" />
        <dc:title></dc:title>
      </cc:Work>
    </rdf:RDF>
  </metadata>
  <defs
     id="defs8" />
  <path
     id="path2"
     d="m 13.100043,1.9999998 c -1.10375,0 -1.998047,0.9222499 -1.998047,2.0594669 V 5.4009359 C 6.5107458,6.3830442 3.1059025,10.385892 3.1059025,15.386535 c 0,6.583858 -2.25929694,8.593216 -3.46679689,9.929285 -0.3750002,0.415117 -0.54219251,0.911883 -0.5390625,1.397783 0.007,1.055477 0.81281255,2.059467 2.00781249,2.059467 H 25.094183 c 1.195,0 1.9996,-1.00399 2.00586,-2.059467 0.003,-0.4859 -0.16211,-0.983305 -0.53711,-1.397783 -1.2075,-1.336069 -3.466796,-3.345427 -3.466797,-9.929285 0,-5.000643 -3.404843,-9.0034908 -7.996093,-9.9855991 V 4.0594667 c 0,-1.137217 -0.89625,-2.0594669 -2,-2.0594669 z m 28.027343,1.1282821 c -0.04699,-1.295e-4 -0.09394,0.00256 -0.140624,0.00804 -2.741731,0.3343118 -5.276526,0.7925025 -7.701172,2.485841 -4.183648,-0.2538498 -7.754204,0.2018045 -10.777344,1.1604613 1.068038,1.0334512 1.909402,2.2995543 2.439453,3.7368068 2.45641,-0.5625125 5.127228,-0.5508343 7.945313,-0.01006 0.285702,0.05479 0.581009,0.002 0.832031,-0.148828 1.255372,-0.7543385 2.512759,-1.418147 3.667969,-1.8985713 l -0.609376,1.8020333 c -0.117437,0.347883 -0.07955,0.73143 0.103516,1.047835 l 10.042969,17.330494 c -0.220647,1.712441 -0.9362,2.559907 -1.6875,3.044954 -0.46836,0.302378 -0.603366,0.270406 -0.892578,0.343914 -0.633073,-1.152668 -1.565581,-2.402458 -3.601563,-4.424635 -0.803833,-0.798566 -2.012315,-1.626361 -3.4375,-2.620591 -1.425185,-0.994229 -3.044096,-2.115757 -4.515625,-3.290321 -1.471528,-1.174562 -2.79041,-2.412667 -3.603515,-3.547753 -0.813106,-1.135085 -1.068626,-2.030417 -0.865235,-2.783498 0.399448,-1.575908 -1.867413,-2.237249 -2.330078,-0.679786 -0.0011,0.0038 0.001,0.0082 0,0.01206 h -0.0039 c -0.0036,0.01328 0.0054,0.02495 0.002,0.03821 -0.48823,1.811968 -0.07441,3.628468 0.767578,5.21906 0.849852,1.605447 2.118018,3.06066 3.5,4.402512 2.763966,2.68371 6.081156,4.985956 7.402344,6.266893 2.933355,2.842417 4.295728,5.003931 4.433594,5.279395 0.260643,0.520047 0.837383,0.783534 1.386718,0.633527 0,0 2.053199,-0.548458 3.994141,-1.874436 0.970471,-0.662989 1.944688,-1.533019 2.611328,-2.713107 0.666638,-1.180089 0.971345,-2.700104 0.587891,-4.33212 -0.02485,-0.108064 -0.0636,-0.212226 -0.115235,-0.309724 L 41.158636,9.7370794 42.307074,4.6567926 C 42.482729,3.8752015 41.906531,3.1284478 41.127386,3.1282819 Z M 9.1019964,30.832537 c 0,2.275072 1.7905376,4.118934 3.9980466,4.118934 2.2075,0 3.998047,-1.843862 3.998047,-4.118934 z m 1.5859366,5.850576 0.132813,0.297657 c 0.01389,0.0049 0.02716,0.0072 0.04102,0.01208 -0.05622,-0.104706 -0.119384,-0.203374 -0.173829,-0.309724 z m 0.173829,0.309724 c 6.682318,12.444789 25.817396,13.286672 33.050781,2.50193 l -0.01367,-0.0905 c 0.04189,-0.06248 0.0956,-0.109603 0.136719,-0.172964 0.819908,-1.263229 -0.850408,-2.6521 -1.876954,-1.560689 -5.602567,5.964457 -16.514358,6.874479 -23.341796,2.431537 -1.782636,-1.160045 -2.225684,-1.644602 -3.119141,-2.759362 -1.946281,0.349737 -3.312906,0.18605 -4.835937,-0.349949 z"
     style="color:#000000;font-style:normal;font-variant:normal;font-weight:normal;font-stretch:normal;font-size:medium;line-height:normal;font-family:sans-serif;font-variant-ligatures:normal;font-variant-position:normal;font-variant-caps:normal;font-variant-numeric:normal;font-variant-alternates:normal;font-feature-settings:normal;text-indent:0;text-align:start;text-decoration:none;text-decoration-line:none;text-decoration-style:solid;text-decoration-color:#000000;letter-spacing:normal;word-spacing:normal;text-transform:none;writing-mode:lr-tb;direction:ltr;text-orientation:mixed;dominant-baseline:auto;baseline-shift:baseline;text-anchor:start;white-space:normal;shape-padding:0;clip-rule:nonzero;display:inline;overflow:visible;visibility:visible;opacity:1;isolation:auto;mix-blend-mode:normal;color-interpolation:sRGB;color-interpolation-filters:linearRGB;solid-color:#000000;solid-opacity:1;vector-effect:none;fill:#000000;fill-opacity:1;fill-rule:nonzero;stroke:none;stroke-width:2.45781541;stroke-linecap:butt;stroke-linejoin:round;stroke-miterlimit:4;stroke-dasharray:none;stroke-dashoffset:0;stroke-opacity:1;color-rendering:auto;image-rendering:auto;shape-rendering:auto;text-rendering:auto;enable-background:accumulate" />
</svg>
