<?xml version="1.0" encoding="UTF-8" standalone="no"?>
<svg
   xmlns:dc="http://purl.org/dc/elements/1.1/"
   xmlns:cc="http://creativecommons.org/ns#"
   xmlns:rdf="http://www.w3.org/1999/02/22-rdf-syntax-ns#"
   xmlns:svg="http://www.w3.org/2000/svg"
   xmlns="http://www.w3.org/2000/svg"
   viewBox="0 0 50 50"
   version="1.1"
   id="svg4">
  <metadata
     id="metadata10">
    <rdf:RDF>
      <cc:Work
         rdf:about="">
        <dc:format>image/svg+xml</dc:format>
        <dc:type
           rdf:resource="http://purl.org/dc/dcmitype/StillImage" />
        <dc:title></dc:title>
      </cc:Work>
    </rdf:RDF>
  </metadata>
  <defs
     id="defs8" />
  <path
     style="fill:#000000;stroke:#000000;stroke-linejoin:round;stroke-width:1;stroke-miterlimit:4;stroke-dasharray:none"
     d="m 38.955605,0.49912905 c -3.53,0.418 -6.452,0.90199985 -9.286,2.98399995 -24.1359995,-1.6980001 -30.36199951,15.049 -28.98999951,25.88 2.81300001,20.85 31.23799951,26.421 40.64899951,12.336 -7.444,7.696 -19.276,8.752 -28.323,3.084 -9.0469995,-5.668 -13.51199951,-17.392 -8.3229995,-27.217 5.19,-9.8250001 14.3129995,-13.0320001 24.3469995,-11.1620001 2.43,-1.418 5.225,-3.2199999 7.655,-3.1869999 l -1.694,4.8599996 12.752,21.3700004 c -0.439,5.654 -5.459,6.112 -5.459,6.112 -0.574,-1.47 -1.634,-2.942 -4.842,-6.036 -3.207,-3.094 -17.465,-10.177 -15.788,-16.207 -2.001,6.967 10.311,14.152 14.04,17.663 3.73,3.51 5.426,6.04 5.795,6.756 0,0 9.392,-2.504 7.838,-8.927 l -11.927,-21.6380001 z"
     id="path2-7" />
  <path
     id="path5744"
     d="m 14.75004,32.75 c 2.2075,0 3.99813,-1.79062 3.99813,-4 h -7.99625 c 0,2.20938 1.79062,4 3.99812,4 z m 13.46188,-9.35688 c -1.2075,-1.2975 -3.46688,-3.24937 -3.46688,-9.64312 0,-4.8562499 -3.405,-8.7437499 -7.99625,-9.6974999 v -1.3025 c 0,-1.10438 -0.895,-2.00000019 -1.99875,-2.00000019 -1.10375,0 -1.99875,0.89562019 -1.99875,2.00000019 v 1.3025 C 8.1600404,5.0062501 4.7550404,8.8937501 4.7550404,13.75 c 0,6.39375 -2.25937,8.34562 -3.46687,9.64312 -0.37499999,0.40313 -0.54124999,0.885 -0.53812999,1.35688 0.007,1.025 0.81124999,2 2.00624999,2 H 26.74379 c 1.195,0 2,-0.975 2.00625,-2 0.003,-0.47188 -0.16312,-0.95438 -0.53812,-1.35688 z"
     style="fill:#fabb00;fill-opacity:0.54901963;stroke:#a07d00;stroke-width:1.5;stroke-miterlimit:4;stroke-dasharray:none;stroke-opacity:1" />
</svg>
