<?xml version="1.0" standalone="no"?>
<!DOCTYPE svg PUBLIC "-//W3C//DTD SVG 1.1//EN" "http://www.w3.org/Graphics/SVG/1.1/DTD/svg11.dtd" >
<svg xmlns="http://www.w3.org/2000/svg" xmlns:xlink="http://www.w3.org/1999/xlink" version="1.1" viewBox="-10 0 522 512">
  <g transform="matrix(1 0 0 -1 0 480)">
   <path fill="currentColor"
d="M217.5 258q9.5 0 15.5 -7t6 -16.5t-6.5 -16.5t-15.5 -7t-15 7t-6 16.5t6 16.5t15.5 7zM295 258q9 0 15.5 -7t6.5 -16.5t-6.5 -16.5t-15.5 -7t-15.5 7t-6.5 16.5t6.5 16.5t15.5 7zM399 437q18 0 31 -12.5t13 -31.5v-382l-46 40l-26 24l-27 25l11 -39h-242q-18 0 -31 13
t-13 31v288q0 19 13 31.5t31 12.5h286zM317 159q21 0 37 8.5t22 15.5l6 8q0 31 -7.5 62t-15.5 47l-8 16q-14 10 -28.5 15.5t-23.5 5.5l-8 1l-3 -3q16 -5 29.5 -12t18.5 -11l5 -5q-30 17 -64 21q-21 2 -43 -1h-4q-22 -2 -48 -13l-13 -7q18 17 56 28l-2 3q-29 1 -60 -22
q-30 -56 -30 -125q2 -3 6 -8.5t21 -14.5t38 -9q8 9 14 17q-12 4 -21.5 10.5t-12.5 10.5l-3 5q2 -2 6 -4l0.5 -0.5l1 -1l0.5 -0.5q7 -4 16 -7q16 -6 31 -9q29 -5 56 0q15 2 31 9q12 4 24 12q-11 -17 -38 -25z" />
  </g>

</svg>
