<?xml version="1.0" standalone="no"?>
<!DOCTYPE svg PUBLIC "-//W3C//DTD SVG 1.1//EN" "http://www.w3.org/Graphics/SVG/1.1/DTD/svg11.dtd" >
<svg xmlns="http://www.w3.org/2000/svg" xmlns:xlink="http://www.w3.org/1999/xlink" version="1.1" viewBox="-10 0 524 512">
  <g transform="matrix(1 0 0 -1 0 480)">
   <path fill="currentColor"
d="M174 83q0 -4 -5 -4q-6 -1 -6 4q0 3 5 3q6 1 6 -3zM142.5 87q1.5 4 6.5 2q5 -1 4 -5t-6 -2q-6 1 -4.5 5zM187 89q5 0 5.5 -3t-4.5 -5q-5 -1 -5.5 3t4.5 5zM253 472q105 0 178 -70.5t73 -173.5q0 -55 -21 -103.5t-59 -84t-88 -51.5q-8 -2 -12.5 2t-4.5 10v32.5v51.5
q0 32 -17 46q22 3 34 5t30 9t27.5 18t16.5 31t7 48q0 19 -6 31t-20 27q12 31 -2 68q-10 3 -27 -3.5t-30 -14.5l-12 -9q-31 9 -63.5 9t-62.5 -9q-5 4 -14 9.5t-27.5 13t-27.5 4.5q-15 -37 -3 -68q-23 -25 -23 -58q0 -28 7 -48t16 -31t26 -18t29.5 -9.5t33.5 -4.5
q-13 -12 -16 -34q-10 -4 -20.5 -6t-26.5 4t-26 23q-6 11 -15.5 17.5t-16.5 7.5l-6 1q-11 0 -11.5 -3.5t4.5 -7.5l5 -4q7 -4 14 -13t10 -16l4 -8q6 -20 27.5 -27.5t39.5 -4.5l17 2q0 -12 0.5 -36t0.5 -25q0 -6 -4.5 -10t-12.5 -2q-76 25 -123 90.5t-47 148.5q0 104 70.5 174
t174.5 70zM105 127q2 2 5 -1t1 -5t-5 1t-1 5zM94 135q2 2 5 1q3 -2 2 -4q-1 -3 -4 -1q-4 2 -3 4zM127 100q2 3 6 -1t2 -7q-3 -3 -7 1t-1 7zM115 114q3 3 6 -2q3 -4 0 -6t-5.5 2.5t-0.5 5.5z" />
  </g>

</svg>
