<?xml version="1.0" encoding="UTF-8" standalone="no"?>
<svg
   xmlns:dc="http://purl.org/dc/elements/1.1/"
   xmlns:cc="http://creativecommons.org/ns#"
   xmlns:rdf="http://www.w3.org/1999/02/22-rdf-syntax-ns#"
   xmlns:svg="http://www.w3.org/2000/svg"
   xmlns="http://www.w3.org/2000/svg"
   xmlns:sodipodi="http://sodipodi.sourceforge.net/DTD/sodipodi-0.dtd"
   xmlns:inkscape="http://www.inkscape.org/namespaces/inkscape"
   id="svg4"
   version="1.1"
   viewBox="-1 -1 52 52"
   sodipodi:docname="linotify_icon.svg"
   inkscape:version="0.92.4 (5da689c313, 2019-01-14)">
  <sodipodi:namedview
     pagecolor="#ffffff"
     bordercolor="#666666"
     borderopacity="1"
     objecttolerance="10"
     gridtolerance="10"
     guidetolerance="10"
     inkscape:pageopacity="0"
     inkscape:pageshadow="2"
     inkscape:window-width="1920"
     inkscape:window-height="1017"
     id="namedview7"
     showgrid="false"
     inkscape:pagecheckerboard="true"
     inkscape:zoom="6.418354"
     inkscape:cx="58.803184"
     inkscape:cy="50.631684"
     inkscape:window-x="1912"
     inkscape:window-y="-8"
     inkscape:window-maximized="1"
     inkscape:current-layer="svg4" />
  <metadata
     id="metadata10">
    <rdf:RDF>
      <cc:Work
         rdf:about="">
        <dc:format>image/svg+xml</dc:format>
        <dc:type
           rdf:resource="http://purl.org/dc/dcmitype/StillImage" />
        <dc:title />
      </cc:Work>
    </rdf:RDF>
  </metadata>
  <defs
     id="defs8" />
  <path
     inkscape:connector-curvature="0"
     id="path2-2"
     d="m 11.999998,34.152951 c 1.963559,0 3.556304,-1.67344 3.556304,-3.738237 H 8.4436868 c 0,2.064797 1.5927452,3.738237 3.5563112,3.738237 z m 11.974254,-8.74456 c -1.074067,-1.212583 -3.08377,-3.03673 -3.08377,-9.012069 0,-4.538453 -3.028726,-8.1715544 -7.112617,-9.0628899 V 6.1161683 c 0,-1.0321089 -0.796088,-1.8691188 -1.777867,-1.8691188 -0.981778,0 -1.777883,0.8370099 -1.777883,1.8691188 V 7.3334321 C 6.1382267,8.2247676 3.1095004,11.857869 3.1095004,16.396322 c 0,5.975339 -2.0096963,7.799486 -3.08376045,9.012069 -0.33356019,0.376749 -0.48143816,0.827093 -0.47865434,1.268084 0.00626,0.957925 0.72159334,1.86912 1.78453829,1.86912 H 22.668358 c 1.062946,0 1.778987,-0.911195 1.784557,-1.86912 0.0027,-0.440991 -0.145104,-0.891915 -0.478663,-1.268084 z"
     style="fill:#ffcc00;fill-opacity:1;stroke:#9f8200;stroke-width:1.09409809;stroke-miterlimit:4;stroke-dasharray:none;stroke-opacity:0.98660715" />
  <path
     inkscape:connector-curvature="0"
     id="path2"
     d="m 40.835118,2.5000034 c -0.04916,-1.33e-4 -0.09825,0.00261 -0.14708,0.00825 -2.867584,0.342882 -5.518732,0.812819 -8.054675,2.5495692 -4.375688,-0.2603581 -8.110142,0.2069778 -11.272053,1.1902108 1.117064,1.0599452 1.99705,2.358508 2.551432,3.8326056 2.569165,-0.5769333 5.36258,-0.5649923 8.310021,-0.01024 0.298818,0.05619 0.60768,0.0019 0.870226,-0.1526443 1.312995,-0.7736763 2.628099,-1.4545025 3.836335,-1.9472447 l -0.637345,1.8482807 c -0.122829,0.3568013 -0.08321,0.7501813 0.108267,1.0746973 L 46.904214,28.66826 c -0.230777,1.756341 -0.979174,2.625534 -1.764961,3.123016 -0.489859,0.31013 -0.631064,0.277336 -0.933552,0.35273 C 43.543569,30.961789 42.568259,29.67996 40.43882,27.605942 39.598088,26.786904 38.334136,25.937888 36.84353,24.91817 35.352926,23.898452 33.659702,22.748172 32.120626,21.543497 30.581551,20.338823 29.20213,19.068979 28.3517,17.904795 c -0.850429,-1.164188 -1.117676,-2.082469 -0.90495,-2.854857 0.417784,-1.616309 -1.953132,-2.294605 -2.437035,-0.697214 -0.0011,0.0039 0.0011,0.0083 0,0.01236 h -0.0042 c -0.0037,0.0136 0.0055,0.02558 0.002,0.03921 -0.51064,1.858416 -0.07783,3.721485 0.802814,5.352852 0.88886,1.646604 2.215239,3.139125 3.660658,4.515377 2.890839,2.752512 6.360295,5.113776 7.742129,6.427551 3.068005,2.915285 4.492913,5.132212 4.637106,5.414739 0.27261,0.533378 0.875823,0.803619 1.450374,0.649769 0,0 2.147445,-0.562519 4.177483,-1.92249 1.015016,-0.679986 2.033952,-1.57232 2.731192,-2.782661 0.697238,-1.210341 1.015935,-2.769324 0.614877,-4.44318 -0.02599,-0.110835 -0.06651,-0.217666 -0.120522,-0.317662 L 40.867915,9.2781814 42.069067,4.0676583 C 42.252731,3.2660314 41.650026,2.5001734 40.835118,2.5000034 Z M 9,36.916038 c 6.824917,13.073286 27.119051,14.037028 34.748118,2.882745 l -0.01425,-0.09288 c 0.04381,-0.06409 0.09999,-0.11241 0.142993,-0.177398 0.857546,-1.295613 -0.88944,-2.72009 -1.963108,-1.6007 -5.85974,6.117363 -17.270649,7.050531 -24.411481,2.493689 -1.864465,-1.189778 -2.32915,-1.686453 -3.263618,-2.829792 C 11.75843,37.878297 10.776733,37.517732 9,36.916038 Z"
     style="color:#000000;font-style:normal;font-variant:normal;font-weight:normal;font-stretch:normal;font-size:medium;line-height:normal;font-family:sans-serif;font-variant-ligatures:normal;font-variant-position:normal;font-variant-caps:normal;font-variant-numeric:normal;font-variant-alternates:normal;font-feature-settings:normal;text-indent:0;text-align:start;text-decoration:none;text-decoration-line:none;text-decoration-style:solid;text-decoration-color:#000000;letter-spacing:normal;word-spacing:normal;text-transform:none;writing-mode:lr-tb;direction:ltr;text-orientation:mixed;dominant-baseline:auto;baseline-shift:baseline;text-anchor:start;white-space:normal;shape-padding:0;clip-rule:nonzero;display:inline;overflow:visible;visibility:visible;opacity:1;isolation:auto;mix-blend-mode:normal;color-interpolation:sRGB;color-interpolation-filters:linearRGB;solid-color:#000000;solid-opacity:1;vector-effect:none;fill:#000000;fill-opacity:1;fill-rule:nonzero;stroke:none;stroke-width:2.54560804;stroke-linecap:butt;stroke-linejoin:round;stroke-miterlimit:4;stroke-dasharray:none;stroke-dashoffset:0;stroke-opacity:1;color-rendering:auto;image-rendering:auto;shape-rendering:auto;text-rendering:auto;enable-background:accumulate"
     sodipodi:nodetypes="ccccccccccccccscsccccccccccscccccccccccscc" />
</svg>
