<?xml version="1.0" encoding="UTF-8" standalone="no"?>
<svg
   xmlns:dc="http://purl.org/dc/elements/1.1/"
   xmlns:cc="http://creativecommons.org/ns#"
   xmlns:rdf="http://www.w3.org/1999/02/22-rdf-syntax-ns#"
   xmlns:svg="http://www.w3.org/2000/svg"
   xmlns="http://www.w3.org/2000/svg"
   xmlns:sodipodi="http://sodipodi.sourceforge.net/DTD/sodipodi-0.dtd"
   xmlns:inkscape="http://www.inkscape.org/namespaces/inkscape"
   id="svg4"
   version="1.1"
   viewBox="-1 -1 52 52"
   sodipodi:docname="linotify_browser_action_icon_dark_theme.svg"
   inkscape:version="0.92.4 (5da689c313, 2019-01-14)">
  <sodipodi:namedview
     pagecolor="#ffffff"
     bordercolor="#666666"
     borderopacity="1"
     objecttolerance="10"
     gridtolerance="10"
     guidetolerance="10"
     inkscape:pageopacity="0"
     inkscape:pageshadow="2"
     inkscape:window-width="1920"
     inkscape:window-height="1017"
     id="namedview7"
     showgrid="false"
     inkscape:zoom="4.5384615"
     inkscape:cx="26"
     inkscape:cy="26"
     inkscape:window-x="1912"
     inkscape:window-y="-8"
     inkscape:window-maximized="1"
     inkscape:current-layer="svg4" />
  <metadata
     id="metadata10">
    <rdf:RDF>
      <cc:Work
         rdf:about="">
        <dc:format>image/svg+xml</dc:format>
        <dc:type
           rdf:resource="http://purl.org/dc/dcmitype/StillImage" />
        <dc:title></dc:title>
      </cc:Work>
    </rdf:RDF>
  </metadata>
  <defs
     id="defs8" />
  <path
     id="path2"
     d="m 41.225781,0.091683 c -0.04699,-1.258e-4 -0.09394,0.00248 -0.140625,0.00781 C 38.343425,0.4241515 35.80863,0.869112 33.383984,2.5135566 29.200336,2.2670367 25.62978,2.709534 22.60664,3.6405097 23.674678,4.64412 24.516043,5.873666 25.046094,7.269417 c 2.45641,-0.546269 5.127227,-0.534963 7.945312,-0.0098 0.285702,0.05321 0.581009,0.0019 0.832031,-0.144531 1.255372,-0.732557 2.512759,-1.377198 3.667969,-1.84375 l -0.609375,1.75 c -0.117438,0.337838 -0.07955,0.71031 0.103516,1.017578 l 10.042968,16.830077 c -0.220647,1.662994 -0.9362,2.48599 -1.6875,2.957031 -0.46836,0.293647 -0.603366,0.262597 -0.892578,0.333984 -0.633073,-1.119385 -1.56558,-2.333086 -3.601562,-4.296873 -0.803833,-0.775508 -2.012315,-1.5794 -3.4375,-2.544922 C 35.98419,20.35269 34.365279,19.263546 32.89375,18.122898 31.422222,16.982251 30.103339,15.779896 29.290234,14.677586 28.477128,13.575276 28.221609,12.705797 28.425,11.974461 c 0.399448,-1.530404 -1.867413,-2.17265 -2.330078,-0.660158 -0.0011,0.0037 0.001,0.008 0,0.01172 h -0.0039 c -0.0036,0.01289 0.0054,0.02423 0.002,0.03711 -0.48823,1.759647 -0.07441,3.523695 0.767579,5.068358 0.849852,1.559091 2.118018,2.972284 3.5,4.275391 2.763966,2.606219 6.081155,4.841987 7.402343,6.085937 2.933355,2.760342 4.295728,4.859442 4.433594,5.126953 0.260643,0.50503 0.837384,0.760908 1.386719,0.615234 0,0 2.053199,-0.532622 3.994141,-1.820312 0.970471,-0.643845 1.944688,-1.488753 2.611328,-2.634766 0.666638,-1.146014 0.971344,-2.622139 0.58789,-4.207031 -0.02485,-0.104944 -0.0636,-0.206098 -0.115234,-0.300781 L 41.257085,6.509616 42.405522,1.5760221 C 42.581177,0.8169988 42.004925,0.0918441 41.225781,0.091683 Z m -30.43794,32.586876 c 6.525386,12.378461 25.928852,13.290982 33.223096,2.729531 l -0.01362,-0.08794 c 0.04189,-0.06068 0.0956,-0.106437 0.136719,-0.167968 0.819908,-1.226754 -0.850408,-2.575522 -1.876953,-1.515626 -5.602568,5.792235 -16.512675,6.675806 -23.340113,2.361155 -1.782636,-1.12655 -2.226927,-1.596828 -3.120384,-2.6794 -1.963992,0.34273 -3.336306,0.179426 -4.876157,-0.352492 z"
     style="color:#000000;font-style:normal;font-variant:normal;font-weight:normal;font-stretch:normal;font-size:medium;line-height:normal;font-family:sans-serif;font-variant-ligatures:normal;font-variant-position:normal;font-variant-caps:normal;font-variant-numeric:normal;font-variant-alternates:normal;font-feature-settings:normal;text-indent:0;text-align:start;text-decoration:none;text-decoration-line:none;text-decoration-style:solid;text-decoration-color:#000000;letter-spacing:normal;word-spacing:normal;text-transform:none;writing-mode:lr-tb;direction:ltr;text-orientation:mixed;dominant-baseline:auto;baseline-shift:baseline;text-anchor:start;white-space:normal;shape-padding:0;clip-rule:nonzero;display:inline;overflow:visible;visibility:visible;opacity:1;isolation:auto;mix-blend-mode:normal;color-interpolation:sRGB;color-interpolation-filters:linearRGB;solid-color:#000000;solid-opacity:1;vector-effect:none;fill:#ffffff;fill-opacity:1;fill-rule:nonzero;stroke:none;stroke-width:2.42207098;stroke-linecap:butt;stroke-linejoin:round;stroke-miterlimit:4;stroke-dasharray:none;stroke-dashoffset:0;stroke-opacity:1;color-rendering:auto;image-rendering:auto;shape-rendering:auto;text-rendering:auto;enable-background:accumulate" />
  <path
     id="path2-2"
     d="m 13.512089,31.403614 c 2.194202,0 3.974035,-1.779833 3.974035,-3.975903 H 9.5380443 c 0,2.19607 1.7798337,3.975903 3.9740447,3.975903 z m 13.380774,-9.300513 c -1.200226,-1.289674 -3.445995,-3.229795 -3.445995,-9.585029 0,-4.826994 -3.384488,-8.6910746 -7.94808,-9.6390791 V 1.5843393 c 0,-1.09772718 -0.889598,-1.98795178 -1.986699,-1.98795178 -1.097101,0 -1.986718,0.8902246 -1.986718,1.98795178 V 2.8789929 C 6.9617781,3.8269974 3.5772902,7.691078 3.5772902,12.518072 c 0,6.355234 -2.2457593,8.295355 -3.4459852,9.585029 -0.37274117,0.400702 -0.53798966,0.879679 -0.53487852,1.348706 0.006958,1.018826 0.80635322,1.987952 1.99415432,1.987952 H 25.433578 c 1.187801,0 1.987951,-0.969126 1.994174,-1.987952 0.003,-0.469027 -0.162148,-0.948621 -0.534889,-1.348706 z"
     style="fill:#ffcc00;fill-opacity:1;stroke:#9f8200;stroke-width:1.19277108;stroke-miterlimit:4;stroke-dasharray:none;stroke-opacity:0.98660715" />
</svg>
