<?xml version="1.0" encoding="UTF-8" standalone="no"?>
<svg
   xmlns:dc="http://purl.org/dc/elements/1.1/"
   xmlns:cc="http://creativecommons.org/ns#"
   xmlns:rdf="http://www.w3.org/1999/02/22-rdf-syntax-ns#"
   xmlns:svg="http://www.w3.org/2000/svg"
   xmlns="http://www.w3.org/2000/svg"
   id="svg4"
   version="1.1"
   viewBox="0 0 50 50">
  <metadata
     id="metadata10">
    <rdf:RDF>
      <cc:Work
         rdf:about="">
        <dc:format>image/svg+xml</dc:format>
        <dc:type
           rdf:resource="http://purl.org/dc/dcmitype/StillImage" />
        <dc:title></dc:title>
      </cc:Work>
    </rdf:RDF>
  </metadata>
  <defs
     id="defs8" />
  <path
     id="path2-7"
     d="M 40.13056,0.44998461 C 36.953616,0.82617801 34.323861,1.2617704 31.773305,3.1355382 10.05128,1.6073644 4.4479763,16.679405 5.682755,26.427137 8.2144113,45.191813 33.79647,50.205626 42.266224,37.529345 35.566739,44.455626 24.918123,45.406009 16.775963,40.304897 8.6338041,35.203785 4.6153734,24.652368 9.2853928,15.81002 13.956313,6.9676719 22.16687,4.0814217 31.197315,5.7643926 33.384276,4.4882146 35.899733,2.8664428 38.086696,2.8961423 L 36.562122,7.2700664 48.038723,26.502736 c -0.395092,5.088512 -4.913014,5.500704 -4.913014,5.500704 -0.516592,-1.322976 -1.470575,-2.647754 -4.357725,-5.432306 -2.886251,-2.784551 -15.718229,-9.159142 -14.208955,-14.586048 -1.800869,6.270191 9.27974,12.73658 12.635782,15.896425 3.356942,3.158946 4.883315,5.435907 5.21541,6.080296 0,0 8.452654,-2.253561 7.054078,-8.034162 L 38.730185,6.4537807 Z"
     style="fill:#000000;stroke:#000000;stroke-width:0.89998448;stroke-linejoin:round;stroke-miterlimit:4;stroke-dasharray:none" />
  <path
     style="fill:#ffbf01;fill-opacity:1;stroke:#a07d00;stroke-width:1.5;stroke-miterlimit:4;stroke-dasharray:none;stroke-opacity:1"
     d="m 14.75004,32.75 c 2.2075,0 3.99813,-1.79062 3.99813,-4 h -7.99625 c 0,2.20938 1.79062,4 3.99812,4 z m 13.46188,-9.35688 c -1.2075,-1.2975 -3.46688,-3.24937 -3.46688,-9.64312 0,-4.8562499 -3.405,-8.7437499 -7.99625,-9.6974999 v -1.3025 c 0,-1.10438 -0.895,-2.00000019 -1.99875,-2.00000019 -1.10375,0 -1.99875,0.89562019 -1.99875,2.00000019 v 1.3025 C 8.1600404,5.0062501 4.7550404,8.8937501 4.7550404,13.75 c 0,6.39375 -2.25937,8.34562 -3.46687,9.64312 -0.37499999,0.40313 -0.54124999,0.885 -0.53812999,1.35688 0.007,1.025 0.81124999,2 2.00624999,2 H 26.74379 c 1.195,0 2,-0.975 2.00625,-2 0.003,-0.47188 -0.16312,-0.95438 -0.53812,-1.35688 z"
     id="path5744" />
</svg>
