<?xml version="1.0" encoding="UTF-8" standalone="no"?>
<!-- Created with Inkscape (http://www.inkscape.org/) -->

<svg
   xmlns:dc="http://purl.org/dc/elements/1.1/"
   xmlns:cc="http://creativecommons.org/ns#"
   xmlns:rdf="http://www.w3.org/1999/02/22-rdf-syntax-ns#"
   xmlns:svg="http://www.w3.org/2000/svg"
   xmlns="http://www.w3.org/2000/svg"
   xmlns:sodipodi="http://sodipodi.sourceforge.net/DTD/sodipodi-0.dtd"
   xmlns:inkscape="http://www.inkscape.org/namespaces/inkscape"
   width="1280"
   height="640"
   viewBox="0 0 338.66666 169.33334"
   version="1.1"
   id="svg4522"
   inkscape:version="0.92.4 (5da689c313, 2019-01-14)"
   sodipodi:docname="linotify_banner.svg">
  <defs
     id="defs4516" />
  <sodipodi:namedview
     id="base"
     pagecolor="#ffffff"
     bordercolor="#666666"
     borderopacity="1.0"
     inkscape:pageopacity="1"
     inkscape:pageshadow="2"
     inkscape:zoom="0.7"
     inkscape:cx="363.61028"
     inkscape:cy="444.89749"
     inkscape:document-units="mm"
     inkscape:current-layer="layer1"
     showgrid="false"
     units="px"
     inkscape:pagecheckerboard="true"
     inkscape:window-width="2560"
     inkscape:window-height="1377"
     inkscape:window-x="1912"
     inkscape:window-y="-8"
     inkscape:window-maximized="1" />
  <metadata
     id="metadata4519">
    <rdf:RDF>
      <cc:Work
         rdf:about="">
        <dc:format>image/svg+xml</dc:format>
        <dc:type
           rdf:resource="http://purl.org/dc/dcmitype/StillImage" />
        <dc:title></dc:title>
      </cc:Work>
    </rdf:RDF>
  </metadata>
  <g
     inkscape:label="Layer 1"
     inkscape:groupmode="layer"
     id="layer1"
     transform="translate(0,-127.66665)"
     style="display:inline">
    <path
       inkscape:connector-curvature="0"
       id="path2-2"
       d="m 35.452283,229.06315 c 4.155915,0 7.526988,-3.54184 7.526988,-7.91202 H 27.92527 c 0,4.37018 3.371083,7.91202 7.527013,7.91202 z m 25.343773,-18.50802 c -2.273288,-2.56645 -6.526872,-6.42731 -6.526872,-19.07421 0,-9.60574 -6.410362,-17.29529 -15.054009,-19.18181 v -2.57639 c 0,-2.18448 -1.684935,-3.95604 -3.762892,-3.95604 -2.077966,0 -3.762931,1.77156 -3.762931,3.95604 v 2.57639 c -8.643641,1.88652 -15.054008,9.57607 -15.054008,19.18181 0,12.6469 -4.253565,16.50776 -6.526841,19.07421 -0.7060325,0.79756 -1.0189779,1.75053 -1.0130833,2.68391 0.013605,2.02747 1.5272643,3.95605 3.7770153,3.95605 h 45.159664 c 2.249751,0 3.765262,-1.92858 3.777056,-3.95605 0.0055,-0.93338 -0.307102,-1.88771 -1.013099,-2.68391 z"
       style="fill:#ffcc00;fill-opacity:1;stroke:#9f8200;stroke-width:2.31568265;stroke-miterlimit:4;stroke-dasharray:none;stroke-opacity:0.98660715" />
    <path
       inkscape:connector-curvature="0"
       id="path2"
       d="m 96.48242,162.06901 c -0.103993,-2.4e-4 -0.207986,0.005 -0.311183,0.016 -6.069265,0.72555 -11.680486,1.72036 -17.047858,5.39627 -9.261243,-0.55117 -17.165299,0.43837 -23.857552,2.51911 2.364285,2.24337 4.226796,4.99182 5.400161,8.11177 5.43769,-1.22112 11.350014,-1.19585 17.588341,-0.024 0.632444,0.11919 1.28617,0.004 1.841852,-0.32317 2.779006,-1.6375 5.562414,-3.07843 8.119675,-4.12133 l -1.348944,3.9119 c -0.259979,0.75514 -0.175994,1.58781 0.22959,2.27464 l 22.231848,37.62071 c -0.48877,3.71727 -2.07243,5.55699 -3.73561,6.60987 -1.0368,0.65675 -1.33566,0.58715 -1.97585,0.74634 -1.40142,-2.50214 -3.46568,-5.21523 -7.972656,-9.60493 -1.779476,-1.73349 -4.454661,-3.53048 -7.609558,-5.68874 -3.154907,-2.15825 -6.73862,-4.5928 -9.996116,-7.14255 -3.257492,-2.54966 -6.177067,-5.23732 -7.97702,-7.70139 -1.799952,-2.46399 -2.36559,-4.40754 -1.915344,-6.0424 0.884246,-3.42088 -4.13385,-4.85653 -5.158042,-1.47565 -0.0024,0.008 0.0024,0.0161 0,0.024 h -0.0088 c -0.0078,0.032 0.01197,0.0559 0.0039,0.0831 -1.080774,3.93333 -0.164709,7.87658 1.699177,11.32938 1.881291,3.48513 4.688602,6.64404 7.747865,9.55696 6.118522,5.82575 13.461709,10.82342 16.386396,13.60403 6.493474,6.17029 9.509353,10.86245 9.814527,11.4604 0.576758,1.12889 1.853711,1.70085 3.069791,1.37527 0,0 4.54505,-1.19063 8.84173,-4.06899 2.14825,-1.43919 4.3049,-3.32786 5.78064,-5.88961 1.47566,-2.56166 2.15025,-5.86128 1.30136,-9.40408 -0.0559,-0.23439 -0.1408,-0.46076 -0.25519,-0.67274 l -20.817473,-38.14059 2.542232,-11.02814 c 0.388772,-1.69668 -0.886897,-3.31761 -2.611659,-3.31801 z m -67.379699,72.8423 c 14.445083,27.66987 57.398056,29.70966 73.545199,6.10143 l -0.032,-0.19679 c 0.0928,-0.13599 0.212,-0.23758 0.30238,-0.37517 1.815,-2.74221 -1.88259,-5.75713 -4.154993,-3.38793 -12.402274,12.94752 -36.553707,14.92258 -51.667435,5.27795 -3.946192,-2.51823 -4.929703,-3.56943 -6.90752,-5.98934 -5.249453,0.60636 -7.327239,-0.15679 -11.087729,-1.43007 z"
       style="color:#000000;font-style:normal;font-variant:normal;font-weight:normal;font-stretch:normal;font-size:medium;line-height:normal;font-family:sans-serif;font-variant-ligatures:normal;font-variant-position:normal;font-variant-caps:normal;font-variant-numeric:normal;font-variant-alternates:normal;font-feature-settings:normal;text-indent:0;text-align:start;text-decoration:none;text-decoration-line:none;text-decoration-style:solid;text-decoration-color:#000000;letter-spacing:normal;word-spacing:normal;text-transform:none;writing-mode:lr-tb;direction:ltr;text-orientation:mixed;dominant-baseline:auto;baseline-shift:baseline;text-anchor:start;white-space:normal;shape-padding:0;clip-rule:nonzero;display:inline;overflow:visible;visibility:visible;opacity:1;isolation:auto;mix-blend-mode:normal;color-interpolation:sRGB;color-interpolation-filters:linearRGB;solid-color:#000000;solid-opacity:1;vector-effect:none;fill:#000000;fill-opacity:1;fill-rule:nonzero;stroke:none;stroke-width:5.3878355;stroke-linecap:butt;stroke-linejoin:round;stroke-miterlimit:4;stroke-dasharray:none;stroke-dashoffset:0;stroke-opacity:1;color-rendering:auto;image-rendering:auto;shape-rendering:auto;text-rendering:auto;enable-background:accumulate"
       sodipodi:nodetypes="ccccccccccccccscsccccccccccscccccccccccscc" />
    <text
       xml:space="preserve"
       style="font-style:normal;font-weight:normal;font-size:9.04015064px;line-height:1.25;font-family:sans-serif;letter-spacing:0px;word-spacing:0px;fill:#000000;fill-opacity:1;stroke:none;stroke-width:0.22600377"
       x="130.95418"
       y="224.13495"
       id="text5087"><tspan
         sodipodi:role="line"
         id="tspan5085"
         x="130.95418"
         y="224.13495"
         style="font-style:normal;font-variant:normal;font-weight:bold;font-stretch:normal;font-size:43.3927269px;font-family:sans-serif;-inkscape-font-specification:'sans-serif Bold';stroke-width:0.22600377">LiNotify</tspan></text>
  </g>
</svg>
